<svg xmlns="http://www.w3.org/2000/svg" width="1600" height="1220" viewBox="0 0 1600 1220">
<rect width="100%" height="100%" fill="#f8fafc"/>
<text x="800" y="36" text-anchor="middle" font-size="24" font-family="sans-serif">Matrix Multiplication Benchmark Summary</text>
<text x="800" y="60" text-anchor="middle" font-size="13" font-family="sans-serif" fill="#475569">Dimensions: m=1200, n=1200, q=1800</text>
<g>
<text x="740" y="108" text-anchor="middle" font-size="18" font-family="sans-serif">Runtime by P</text>
<rect x="90" y="120" width="1300" height="245" fill="#ffffff" stroke="#cbd5e1"/>
<line x1="90" y1="365" x2="1390" y2="365" stroke="#e2e8f0" stroke-dasharray="4,4"/>
<text x="80" y="369" text-anchor="end" font-size="11" font-family="monospace">0.000</text>
<line x1="90.000" y1="316.000" x2="1390.000" y2="316.000" stroke="#e2e8f0" stroke-dasharray="4,4"/>
<text x="80.000" y="320.000" text-anchor="end" font-size="11" font-family="monospace">0.716</text>
<line x1="90.000" y1="267.000" x2="1390.000" y2="267.000" stroke="#e2e8f0" stroke-dasharray="4,4"/>
<text x="80.000" y="271.000" text-anchor="end" font-size="11" font-family="monospace">1.431</text>
<line x1="90.000" y1="218.000" x2="1390.000" y2="218.000" stroke="#e2e8f0" stroke-dasharray="4,4"/>
<text x="80.000" y="222.000" text-anchor="end" font-size="11" font-family="monospace">2.147</text>
<line x1="90.000" y1="169.000" x2="1390.000" y2="169.000" stroke="#e2e8f0" stroke-dasharray="4,4"/>
<text x="80.000" y="173.000" text-anchor="end" font-size="11" font-family="monospace">2.862</text>
<line x1="90.000" y1="120.000" x2="1390.000" y2="120.000" stroke="#e2e8f0" stroke-dasharray="4,4"/>
<text x="80.000" y="124.000" text-anchor="end" font-size="11" font-family="monospace">3.578</text>
<line x1="90.000" y1="120.000" x2="90.000" y2="365.000" stroke="#f1f5f9"/>
<text x="90.000" y="385.000" text-anchor="middle" font-size="11" font-family="monospace">1</text>
<line x1="252.500" y1="120.000" x2="252.500" y2="365.000" stroke="#f1f5f9"/>
<text x="252.500" y="385.000" text-anchor="middle" font-size="11" font-family="monospace">4</text>
<line x1="523.333" y1="120.000" x2="523.333" y2="365.000" stroke="#f1f5f9"/>
<text x="523.333" y="385.000" text-anchor="middle" font-size="11" font-family="monospace">9</text>
<line x1="902.500" y1="120.000" x2="902.500" y2="365.000" stroke="#f1f5f9"/>
<text x="902.500" y="385.000" text-anchor="middle" font-size="11" font-family="monospace">16</text>
<line x1="1390.000" y1="120.000" x2="1390.000" y2="365.000" stroke="#f1f5f9"/>
<text x="1390.000" y="385.000" text-anchor="middle" font-size="11" font-family="monospace">25</text>
<text x="740.000" y="410.000" text-anchor="middle" font-size="12" font-family="sans-serif">P (threads / processors)</text>
<text x="38.000" y="242.500" transform="rotate(-90 30.000 242.500)" text-anchor="middle" font-size="12" font-family="sans-serif">Seconds</text>
<polyline fill="none" stroke="#1d4ed8" stroke-width="2.5" points="90,142.273 252.5,142.273 523.333,142.273 902.5,142.273 1390,142.273"/>
<circle cx="90.000" cy="142.273" r="4" fill="#1d4ed8"/>
<circle cx="252.500" cy="142.273" r="4" fill="#1d4ed8"/>
<circle cx="523.333" cy="142.273" r="4" fill="#1d4ed8"/>
<circle cx="902.500" cy="142.273" r="4" fill="#1d4ed8"/>
<circle cx="1390.000" cy="142.273" r="4" fill="#1d4ed8"/>
<line x1="1400.000" y1="130.000" x2="1450.000" y2="130.000" stroke="#1d4ed8" stroke-width="3"/>
<text x="1460.000" y="134.000" font-size="11" font-family="sans-serif">Implementation 1 (Serial)</text>
<polyline fill="none" stroke="#ea580c" stroke-width="2.5" points="90,153.936 252.5,258.824 523.333,309.748 902.5,327.686 1390,321.784"/>
<circle cx="90.000" cy="153.936" r="4" fill="#ea580c"/>
<circle cx="252.500" cy="258.824" r="4" fill="#ea580c"/>
<circle cx="523.333" cy="309.748" r="4" fill="#ea580c"/>
<circle cx="902.500" cy="327.686" r="4" fill="#ea580c"/>
<circle cx="1390.000" cy="321.784" r="4" fill="#ea580c"/>
<line x1="1400.000" y1="148.000" x2="1450.000" y2="148.000" stroke="#ea580c" stroke-width="3"/>
<text x="1460.000" y="152.000" font-size="11" font-family="sans-serif">Implementation 2 (MM-1D)</text>
<polyline fill="none" stroke="#059669" stroke-width="2.5" points="90,158.773 252.5,310.338 523.333,336.119 902.5,347.709 1390,345.827"/>
<circle cx="90.000" cy="158.773" r="4" fill="#059669"/>
<circle cx="252.500" cy="310.338" r="4" fill="#059669"/>
<circle cx="523.333" cy="336.119" r="4" fill="#059669"/>
<circle cx="902.500" cy="347.709" r="4" fill="#059669"/>
<circle cx="1390.000" cy="345.827" r="4" fill="#059669"/>
<line x1="1400.000" y1="166.000" x2="1450.000" y2="166.000" stroke="#059669" stroke-width="3"/>
<text x="1460.000" y="170.000" font-size="11" font-family="sans-serif">Implementation 3 (MM-2D)</text>
</g>
<g>
<text x="740.000" y="468.000" text-anchor="middle" font-size="18" font-family="sans-serif">Speedup vs Serial</text>
<rect x="90.000" y="480.000" width="1300.000" height="245.000" fill="#ffffff" stroke="#cbd5e1"/>
<line x1="90.000" y1="725.000" x2="1390.000" y2="725.000" stroke="#e2e8f0" stroke-dasharray="4,4"/>
<text x="80.000" y="729.000" text-anchor="end" font-size="11" font-family="monospace">0.000</text>
<line x1="90.000" y1="676.000" x2="1390.000" y2="676.000" stroke="#e2e8f0" stroke-dasharray="4,4"/>
<text x="80.000" y="680.000" text-anchor="end" font-size="11" font-family="monospace">2.834</text>
<line x1="90.000" y1="627.000" x2="1390.000" y2="627.000" stroke="#e2e8f0" stroke-dasharray="4,4"/>
<text x="80.000" y="631.000" text-anchor="end" font-size="11" font-family="monospace">5.668</text>
<line x1="90.000" y1="578.000" x2="1390.000" y2="578.000" stroke="#e2e8f0" stroke-dasharray="4,4"/>
<text x="80.000" y="582.000" text-anchor="end" font-size="11" font-family="monospace">8.501</text>
<line x1="90.000" y1="529.000" x2="1390.000" y2="529.000" stroke="#e2e8f0" stroke-dasharray="4,4"/>
<text x="80.000" y="533.000" text-anchor="end" font-size="11" font-family="monospace">11.335</text>
<line x1="90.000" y1="480.000" x2="1390.000" y2="480.000" stroke="#e2e8f0" stroke-dasharray="4,4"/>
<text x="80.000" y="484.000" text-anchor="end" font-size="11" font-family="monospace">14.169</text>
<line x1="90.000" y1="480.000" x2="90.000" y2="725.000" stroke="#f1f5f9"/>
<text x="90.000" y="745.000" text-anchor="middle" font-size="11" font-family="monospace">1</text>
<line x1="252.500" y1="480.000" x2="252.500" y2="725.000" stroke="#f1f5f9"/>
<text x="252.500" y="745.000" text-anchor="middle" font-size="11" font-family="monospace">4</text>
<line x1="523.333" y1="480.000" x2="523.333" y2="725.000" stroke="#f1f5f9"/>
<text x="523.333" y="745.000" text-anchor="middle" font-size="11" font-family="monospace">9</text>
<line x1="902.500" y1="480.000" x2="902.500" y2="725.000" stroke="#f1f5f9"/>
<text x="902.500" y="745.000" text-anchor="middle" font-size="11" font-family="monospace">16</text>
<line x1="1390.000" y1="480.000" x2="1390.000" y2="725.000" stroke="#f1f5f9"/>
<text x="1390.000" y="745.000" text-anchor="middle" font-size="11" font-family="monospace">25</text>
<text x="740.000" y="770.000" text-anchor="middle" font-size="12" font-family="sans-serif">P (threads / processors)</text>
<text x="38.000" y="602.500" transform="rotate(-90 30.000 602.500)" text-anchor="middle" font-size="12" font-family="sans-serif">Speedup</text>
<polyline fill="none" stroke="#1d4ed8" stroke-width="2.5" points="90,707.709 252.5,707.709 523.333,707.709 902.5,707.709 1390,707.709"/>
<circle cx="90.000" cy="707.709" r="4" fill="#1d4ed8"/>
<circle cx="252.500" cy="707.709" r="4" fill="#1d4ed8"/>
<circle cx="523.333" cy="707.709" r="4" fill="#1d4ed8"/>
<circle cx="902.500" cy="707.709" r="4" fill="#1d4ed8"/>
<circle cx="1390.000" cy="707.709" r="4" fill="#1d4ed8"/>
<line x1="1400.000" y1="490.000" x2="1450.000" y2="490.000" stroke="#1d4ed8" stroke-width="3"/>
<text x="1460.000" y="494.000" font-size="11" font-family="sans-serif">Implementation 1 (Serial)</text>
<polyline fill="none" stroke="#ea580c" stroke-width="2.5" points="90,706.753 252.5,688.727 523.333,655.296 902.5,621.788 1390,635.882"/>
<circle cx="90.000" cy="706.753" r="4" fill="#ea580c"/>
<circle cx="252.500" cy="688.727" r="4" fill="#ea580c"/>
<circle cx="523.333" cy="655.296" r="4" fill="#ea580c"/>
<circle cx="902.500" cy="621.788" r="4" fill="#ea580c"/>
<circle cx="1390.000" cy="635.882" r="4" fill="#ea580c"/>
<line x1="1400.000" y1="508.000" x2="1450.000" y2="508.000" stroke="#ea580c" stroke-width="3"/>
<text x="1460.000" y="512.000" font-size="11" font-family="sans-serif">Implementation 2 (MM-1D)</text>
<polyline fill="none" stroke="#059669" stroke-width="2.5" points="90,706.325 252.5,654.545 523.333,591.649 902.5,502.273 1390,524.131"/>
<circle cx="90.000" cy="706.325" r="4" fill="#059669"/>
<circle cx="252.500" cy="654.545" r="4" fill="#059669"/>
<circle cx="523.333" cy="591.649" r="4" fill="#059669"/>
<circle cx="902.500" cy="502.273" r="4" fill="#059669"/>
<circle cx="1390.000" cy="524.131" r="4" fill="#059669"/>
<line x1="1400.000" y1="526.000" x2="1450.000" y2="526.000" stroke="#059669" stroke-width="3"/>
<text x="1460.000" y="530.000" font-size="11" font-family="sans-serif">Implementation 3 (MM-2D)</text>
</g>
<g>
<text x="740.000" y="828.000" text-anchor="middle" font-size="18" font-family="sans-serif">Cost vs Serial</text>
<rect x="90.000" y="840.000" width="1300.000" height="245.000" fill="#ffffff" stroke="#cbd5e1"/>
<line x1="90.000" y1="1085.000" x2="1390.000" y2="1085.000" stroke="#e2e8f0" stroke-dasharray="4,4"/>
<text x="80.000" y="1089.000" text-anchor="end" font-size="11" font-family="monospace">0.000</text>
<line x1="90.000" y1="1036.000" x2="1390.000" y2="1036.000" stroke="#e2e8f0" stroke-dasharray="4,4"/>
<text x="80.000" y="1040.000" text-anchor="end" font-size="11" font-family="monospace">3.471</text>
<line x1="90.000" y1="987.000" x2="1390.000" y2="987.000" stroke="#e2e8f0" stroke-dasharray="4,4"/>
<text x="80.000" y="991.000" text-anchor="end" font-size="11" font-family="monospace">6.942</text>
<line x1="90.000" y1="938.000" x2="1390.000" y2="938.000" stroke="#e2e8f0" stroke-dasharray="4,4"/>
<text x="80.000" y="942.000" text-anchor="end" font-size="11" font-family="monospace">10.413</text>
<line x1="90.000" y1="889.000" x2="1390.000" y2="889.000" stroke="#e2e8f0" stroke-dasharray="4,4"/>
<text x="80.000" y="893.000" text-anchor="end" font-size="11" font-family="monospace">13.884</text>
<line x1="90.000" y1="840.000" x2="1390.000" y2="840.000" stroke="#e2e8f0" stroke-dasharray="4,4"/>
<text x="80.000" y="844.000" text-anchor="end" font-size="11" font-family="monospace">17.355</text>
<line x1="90.000" y1="840.000" x2="90.000" y2="1085.000" stroke="#f1f5f9"/>
<text x="90.000" y="1105.000" text-anchor="middle" font-size="11" font-family="monospace">1</text>
<line x1="252.500" y1="840.000" x2="252.500" y2="1085.000" stroke="#f1f5f9"/>
<text x="252.500" y="1105.000" text-anchor="middle" font-size="11" font-family="monospace">4</text>
<line x1="523.333" y1="840.000" x2="523.333" y2="1085.000" stroke="#f1f5f9"/>
<text x="523.333" y="1105.000" text-anchor="middle" font-size="11" font-family="monospace">9</text>
<line x1="902.500" y1="840.000" x2="902.500" y2="1085.000" stroke="#f1f5f9"/>
<text x="902.500" y="1105.000" text-anchor="middle" font-size="11" font-family="monospace">16</text>
<line x1="1390.000" y1="840.000" x2="1390.000" y2="1085.000" stroke="#f1f5f9"/>
<text x="1390.000" y="1105.000" text-anchor="middle" font-size="11" font-family="monospace">25</text>
<text x="740.000" y="1130.000" text-anchor="middle" font-size="12" font-family="sans-serif">P (threads / processors)</text>
<text x="38.000" y="962.500" transform="rotate(-90 30.000 962.500)" text-anchor="middle" font-size="12" font-family="sans-serif">Cost</text>
<polyline fill="none" stroke="#1d4ed8" stroke-width="2.5" points="90,1039.08 252.5,1039.08 523.333,1039.08 902.5,1039.08 1390,1039.08"/>
<circle cx="90.000" cy="1039.084" r="4" fill="#1d4ed8"/>
<circle cx="252.500" cy="1039.084" r="4" fill="#1d4ed8"/>
<circle cx="523.333" cy="1039.084" r="4" fill="#1d4ed8"/>
<circle cx="902.500" cy="1039.084" r="4" fill="#1d4ed8"/>
<circle cx="1390.000" cy="1039.084" r="4" fill="#1d4ed8"/>
<line x1="1400.000" y1="850.000" x2="1450.000" y2="850.000" stroke="#1d4ed8" stroke-width="3"/>
<text x="1460.000" y="854.000" font-size="11" font-family="sans-serif">Implementation 1 (Serial)</text>
<polyline fill="none" stroke="#ea580c" stroke-width="2.5" points="90,1041.49 252.5,997.446 523.333,982.486 902.5,961.92 1390,862.273"/>
<circle cx="90.000" cy="1041.488" r="4" fill="#ea580c"/>
<circle cx="252.500" cy="997.446" r="4" fill="#ea580c"/>
<circle cx="523.333" cy="982.486" r="4" fill="#ea580c"/>
<circle cx="902.500" cy="961.920" r="4" fill="#ea580c"/>
<circle cx="1390.000" cy="862.273" r="4" fill="#ea580c"/>
<line x1="1400.000" y1="868.000" x2="1450.000" y2="868.000" stroke="#ea580c" stroke-width="3"/>
<text x="1460.000" y="872.000" font-size="11" font-family="sans-serif">Implementation 2 (MM-1D)</text>
<polyline fill="none" stroke="#059669" stroke-width="2.5" points="90,1042.49 252.5,1039.92 523.333,1031.42 902.5,1027.96 1390,986.185"/>
<circle cx="90.000" cy="1042.485" r="4" fill="#059669"/>
<circle cx="252.500" cy="1039.924" r="4" fill="#059669"/>
<circle cx="523.333" cy="1031.415" r="4" fill="#059669"/>
<circle cx="902.500" cy="1027.965" r="4" fill="#059669"/>
<circle cx="1390.000" cy="986.185" r="4" fill="#059669"/>
<line x1="1400.000" y1="886.000" x2="1450.000" y2="886.000" stroke="#059669" stroke-width="3"/>
<text x="1460.000" y="890.000" font-size="11" font-family="sans-serif">Implementation 3 (MM-2D)</text>
</g>
</svg>
