<svg xmlns="http://www.w3.org/2000/svg" width="1600" height="1220" viewBox="0 0 1600 1220">
<rect width="100%" height="100%" fill="#f8fafc"/>
<text x="800" y="36" text-anchor="middle" font-size="24" font-family="sans-serif">Matrix Multiplication Benchmark Summary</text>
<text x="800" y="60" text-anchor="middle" font-size="13" font-family="sans-serif" fill="#475569">Dimensions: m=2400, n=3600, q=3000</text>
<g>
<text x="740" y="108" text-anchor="middle" font-size="18" font-family="sans-serif">Runtime by P</text>
<rect x="90" y="120" width="1300" height="245" fill="#ffffff" stroke="#cbd5e1"/>
<line x1="90" y1="365" x2="1390" y2="365" stroke="#e2e8f0" stroke-dasharray="4,4"/>
<text x="80" y="369" text-anchor="end" font-size="11" font-family="monospace">0.000</text>
<line x1="90.000" y1="316.000" x2="1390.000" y2="316.000" stroke="#e2e8f0" stroke-dasharray="4,4"/>
<text x="80.000" y="320.000" text-anchor="end" font-size="11" font-family="monospace">13.931</text>
<line x1="90.000" y1="267.000" x2="1390.000" y2="267.000" stroke="#e2e8f0" stroke-dasharray="4,4"/>
<text x="80.000" y="271.000" text-anchor="end" font-size="11" font-family="monospace">27.861</text>
<line x1="90.000" y1="218.000" x2="1390.000" y2="218.000" stroke="#e2e8f0" stroke-dasharray="4,4"/>
<text x="80.000" y="222.000" text-anchor="end" font-size="11" font-family="monospace">41.792</text>
<line x1="90.000" y1="169.000" x2="1390.000" y2="169.000" stroke="#e2e8f0" stroke-dasharray="4,4"/>
<text x="80.000" y="173.000" text-anchor="end" font-size="11" font-family="monospace">55.723</text>
<line x1="90.000" y1="120.000" x2="1390.000" y2="120.000" stroke="#e2e8f0" stroke-dasharray="4,4"/>
<text x="80.000" y="124.000" text-anchor="end" font-size="11" font-family="monospace">69.653</text>
<line x1="90.000" y1="120.000" x2="90.000" y2="365.000" stroke="#f1f5f9"/>
<text x="90.000" y="385.000" text-anchor="middle" font-size="11" font-family="monospace">1</text>
<line x1="252.500" y1="120.000" x2="252.500" y2="365.000" stroke="#f1f5f9"/>
<text x="252.500" y="385.000" text-anchor="middle" font-size="11" font-family="monospace">4</text>
<line x1="523.333" y1="120.000" x2="523.333" y2="365.000" stroke="#f1f5f9"/>
<text x="523.333" y="385.000" text-anchor="middle" font-size="11" font-family="monospace">9</text>
<line x1="902.500" y1="120.000" x2="902.500" y2="365.000" stroke="#f1f5f9"/>
<text x="902.500" y="385.000" text-anchor="middle" font-size="11" font-family="monospace">16</text>
<line x1="1390.000" y1="120.000" x2="1390.000" y2="365.000" stroke="#f1f5f9"/>
<text x="1390.000" y="385.000" text-anchor="middle" font-size="11" font-family="monospace">25</text>
<text x="740.000" y="410.000" text-anchor="middle" font-size="12" font-family="sans-serif">P (threads / processors)</text>
<text x="38.000" y="242.500" transform="rotate(-90 30.000 242.500)" text-anchor="middle" font-size="12" font-family="sans-serif">Seconds</text>
<polyline fill="none" stroke="#1d4ed8" stroke-width="2.5" points="90,142.273 252.5,142.273 523.333,142.273 902.5,142.273 1390,142.273"/>
<circle cx="90.000" cy="142.273" r="4" fill="#1d4ed8"/>
<circle cx="252.500" cy="142.273" r="4" fill="#1d4ed8"/>
<circle cx="523.333" cy="142.273" r="4" fill="#1d4ed8"/>
<circle cx="902.500" cy="142.273" r="4" fill="#1d4ed8"/>
<circle cx="1390.000" cy="142.273" r="4" fill="#1d4ed8"/>
<line x1="1400.000" y1="130.000" x2="1450.000" y2="130.000" stroke="#1d4ed8" stroke-width="3"/>
<text x="1460.000" y="134.000" font-size="11" font-family="sans-serif">Implementation 1 (Serial)</text>
<polyline fill="none" stroke="#ea580c" stroke-width="2.5" points="90,167.564 252.5,310.923 523.333,337.713 902.5,347.212 1390,340.477"/>
<circle cx="90.000" cy="167.564" r="4" fill="#ea580c"/>
<circle cx="252.500" cy="310.923" r="4" fill="#ea580c"/>
<circle cx="523.333" cy="337.713" r="4" fill="#ea580c"/>
<circle cx="902.500" cy="347.212" r="4" fill="#ea580c"/>
<circle cx="1390.000" cy="340.477" r="4" fill="#ea580c"/>
<line x1="1400.000" y1="148.000" x2="1450.000" y2="148.000" stroke="#ea580c" stroke-width="3"/>
<text x="1460.000" y="152.000" font-size="11" font-family="sans-serif">Implementation 2 (MM-1D)</text>
<polyline fill="none" stroke="#059669" stroke-width="2.5" points="90,161.042 252.5,313.299 523.333,339.62 902.5,347.58 1390,348.488"/>
<circle cx="90.000" cy="161.042" r="4" fill="#059669"/>
<circle cx="252.500" cy="313.299" r="4" fill="#059669"/>
<circle cx="523.333" cy="339.620" r="4" fill="#059669"/>
<circle cx="902.500" cy="347.580" r="4" fill="#059669"/>
<circle cx="1390.000" cy="348.488" r="4" fill="#059669"/>
<line x1="1400.000" y1="166.000" x2="1450.000" y2="166.000" stroke="#059669" stroke-width="3"/>
<text x="1460.000" y="170.000" font-size="11" font-family="sans-serif">Implementation 3 (MM-2D)</text>
</g>
<g>
<text x="740.000" y="468.000" text-anchor="middle" font-size="18" font-family="sans-serif">Speedup vs P=1</text>
<rect x="90.000" y="480.000" width="1300.000" height="245.000" fill="#ffffff" stroke="#cbd5e1"/>
<line x1="90.000" y1="725.000" x2="1390.000" y2="725.000" stroke="#e2e8f0" stroke-dasharray="4,4"/>
<text x="80.000" y="729.000" text-anchor="end" font-size="11" font-family="monospace">0.000</text>
<line x1="90.000" y1="676.000" x2="1390.000" y2="676.000" stroke="#e2e8f0" stroke-dasharray="4,4"/>
<text x="80.000" y="680.000" text-anchor="end" font-size="11" font-family="monospace">2.717</text>
<line x1="90.000" y1="627.000" x2="1390.000" y2="627.000" stroke="#e2e8f0" stroke-dasharray="4,4"/>
<text x="80.000" y="631.000" text-anchor="end" font-size="11" font-family="monospace">5.435</text>
<line x1="90.000" y1="578.000" x2="1390.000" y2="578.000" stroke="#e2e8f0" stroke-dasharray="4,4"/>
<text x="80.000" y="582.000" text-anchor="end" font-size="11" font-family="monospace">8.152</text>
<line x1="90.000" y1="529.000" x2="1390.000" y2="529.000" stroke="#e2e8f0" stroke-dasharray="4,4"/>
<text x="80.000" y="533.000" text-anchor="end" font-size="11" font-family="monospace">10.870</text>
<line x1="90.000" y1="480.000" x2="1390.000" y2="480.000" stroke="#e2e8f0" stroke-dasharray="4,4"/>
<text x="80.000" y="484.000" text-anchor="end" font-size="11" font-family="monospace">13.587</text>
<line x1="90.000" y1="480.000" x2="90.000" y2="725.000" stroke="#f1f5f9"/>
<text x="90.000" y="745.000" text-anchor="middle" font-size="11" font-family="monospace">1</text>
<line x1="252.500" y1="480.000" x2="252.500" y2="725.000" stroke="#f1f5f9"/>
<text x="252.500" y="745.000" text-anchor="middle" font-size="11" font-family="monospace">4</text>
<line x1="523.333" y1="480.000" x2="523.333" y2="725.000" stroke="#f1f5f9"/>
<text x="523.333" y="745.000" text-anchor="middle" font-size="11" font-family="monospace">9</text>
<line x1="902.500" y1="480.000" x2="902.500" y2="725.000" stroke="#f1f5f9"/>
<text x="902.500" y="745.000" text-anchor="middle" font-size="11" font-family="monospace">16</text>
<line x1="1390.000" y1="480.000" x2="1390.000" y2="725.000" stroke="#f1f5f9"/>
<text x="1390.000" y="745.000" text-anchor="middle" font-size="11" font-family="monospace">25</text>
<text x="740.000" y="770.000" text-anchor="middle" font-size="12" font-family="sans-serif">P (threads / processors)</text>
<text x="38.000" y="602.500" transform="rotate(-90 30.000 602.500)" text-anchor="middle" font-size="12" font-family="sans-serif">Speedup</text>
<polyline fill="none" stroke="#1d4ed8" stroke-width="2.5" points="90,706.969 252.5,706.969 523.333,706.969 902.5,706.969 1390,706.969"/>
<circle cx="90.000" cy="706.969" r="4" fill="#1d4ed8"/>
<circle cx="252.500" cy="706.969" r="4" fill="#1d4ed8"/>
<circle cx="523.333" cy="706.969" r="4" fill="#1d4ed8"/>
<circle cx="902.500" cy="706.969" r="4" fill="#1d4ed8"/>
<circle cx="1390.000" cy="706.969" r="4" fill="#1d4ed8"/>
<line x1="1400.000" y1="490.000" x2="1450.000" y2="490.000" stroke="#1d4ed8" stroke-width="3"/>
<text x="1460.000" y="494.000" font-size="11" font-family="sans-serif">Implementation 1 (Serial)</text>
<polyline fill="none" stroke="#ea580c" stroke-width="2.5" points="90,706.969 252.5,659.168 523.333,594.532 902.5,524.86 1390,579.829"/>
<circle cx="90.000" cy="706.969" r="4" fill="#ea580c"/>
<circle cx="252.500" cy="659.168" r="4" fill="#ea580c"/>
<circle cx="523.333" cy="594.532" r="4" fill="#ea580c"/>
<circle cx="902.500" cy="524.860" r="4" fill="#ea580c"/>
<circle cx="1390.000" cy="579.829" r="4" fill="#ea580c"/>
<line x1="1400.000" y1="508.000" x2="1450.000" y2="508.000" stroke="#ea580c" stroke-width="3"/>
<text x="1460.000" y="512.000" font-size="11" font-family="sans-serif">Implementation 2 (MM-1D)</text>
<polyline fill="none" stroke="#059669" stroke-width="2.5" points="90,706.969 252.5,653.867 523.333,580.095 902.5,513.888 1390,502.273"/>
<circle cx="90.000" cy="706.969" r="4" fill="#059669"/>
<circle cx="252.500" cy="653.867" r="4" fill="#059669"/>
<circle cx="523.333" cy="580.095" r="4" fill="#059669"/>
<circle cx="902.500" cy="513.888" r="4" fill="#059669"/>
<circle cx="1390.000" cy="502.273" r="4" fill="#059669"/>
<line x1="1400.000" y1="526.000" x2="1450.000" y2="526.000" stroke="#059669" stroke-width="3"/>
<text x="1460.000" y="530.000" font-size="11" font-family="sans-serif">Implementation 3 (MM-2D)</text>
</g>
<g>
<text x="740.000" y="828.000" text-anchor="middle" font-size="18" font-family="sans-serif">Cost vs Serial</text>
<rect x="90.000" y="840.000" width="1300.000" height="245.000" fill="#ffffff" stroke="#cbd5e1"/>
<line x1="90.000" y1="1085.000" x2="1390.000" y2="1085.000" stroke="#e2e8f0" stroke-dasharray="4,4"/>
<text x="80.000" y="1089.000" text-anchor="end" font-size="11" font-family="monospace">0.000</text>
<line x1="90.000" y1="1036.000" x2="1390.000" y2="1036.000" stroke="#e2e8f0" stroke-dasharray="4,4"/>
<text x="80.000" y="1040.000" text-anchor="end" font-size="11" font-family="monospace">38.345</text>
<line x1="90.000" y1="987.000" x2="1390.000" y2="987.000" stroke="#e2e8f0" stroke-dasharray="4,4"/>
<text x="80.000" y="991.000" text-anchor="end" font-size="11" font-family="monospace">76.690</text>
<line x1="90.000" y1="938.000" x2="1390.000" y2="938.000" stroke="#e2e8f0" stroke-dasharray="4,4"/>
<text x="80.000" y="942.000" text-anchor="end" font-size="11" font-family="monospace">115.036</text>
<line x1="90.000" y1="889.000" x2="1390.000" y2="889.000" stroke="#e2e8f0" stroke-dasharray="4,4"/>
<text x="80.000" y="893.000" text-anchor="end" font-size="11" font-family="monospace">153.381</text>
<line x1="90.000" y1="840.000" x2="1390.000" y2="840.000" stroke="#e2e8f0" stroke-dasharray="4,4"/>
<text x="80.000" y="844.000" text-anchor="end" font-size="11" font-family="monospace">191.726</text>
<line x1="90.000" y1="840.000" x2="90.000" y2="1085.000" stroke="#f1f5f9"/>
<text x="90.000" y="1105.000" text-anchor="middle" font-size="11" font-family="monospace">1</text>
<line x1="252.500" y1="840.000" x2="252.500" y2="1085.000" stroke="#f1f5f9"/>
<text x="252.500" y="1105.000" text-anchor="middle" font-size="11" font-family="monospace">4</text>
<line x1="523.333" y1="840.000" x2="523.333" y2="1085.000" stroke="#f1f5f9"/>
<text x="523.333" y="1105.000" text-anchor="middle" font-size="11" font-family="monospace">9</text>
<line x1="902.500" y1="840.000" x2="902.500" y2="1085.000" stroke="#f1f5f9"/>
<text x="902.500" y="1105.000" text-anchor="middle" font-size="11" font-family="monospace">16</text>
<line x1="1390.000" y1="840.000" x2="1390.000" y2="1085.000" stroke="#f1f5f9"/>
<text x="1390.000" y="1105.000" text-anchor="middle" font-size="11" font-family="monospace">25</text>
<text x="740.000" y="1130.000" text-anchor="middle" font-size="12" font-family="sans-serif">P (threads / processors)</text>
<text x="38.000" y="962.500" transform="rotate(-90 30.000 962.500)" text-anchor="middle" font-size="12" font-family="sans-serif">Cost</text>
<polyline fill="none" stroke="#1d4ed8" stroke-width="2.5" points="90,1004.08 252.5,1004.08 523.333,1004.08 902.5,1004.08 1390,1004.08"/>
<circle cx="90.000" cy="1004.084" r="4" fill="#1d4ed8"/>
<circle cx="252.500" cy="1004.084" r="4" fill="#1d4ed8"/>
<circle cx="523.333" cy="1004.084" r="4" fill="#1d4ed8"/>
<circle cx="902.500" cy="1004.084" r="4" fill="#1d4ed8"/>
<circle cx="1390.000" cy="1004.084" r="4" fill="#1d4ed8"/>
<line x1="1400.000" y1="850.000" x2="1450.000" y2="850.000" stroke="#1d4ed8" stroke-width="3"/>
<text x="1460.000" y="854.000" font-size="11" font-family="sans-serif">Implementation 1 (Serial)</text>
<polyline fill="none" stroke="#ea580c" stroke-width="2.5" points="90,1013.27 252.5,1006.42 523.333,995.782 902.5,981.605 1390,862.273"/>
<circle cx="90.000" cy="1013.272" r="4" fill="#ea580c"/>
<circle cx="252.500" cy="1006.416" r="4" fill="#ea580c"/>
<circle cx="523.333" cy="995.782" r="4" fill="#ea580c"/>
<circle cx="902.500" cy="981.605" r="4" fill="#ea580c"/>
<circle cx="1390.000" cy="862.273" r="4" fill="#ea580c"/>
<line x1="1400.000" y1="868.000" x2="1450.000" y2="868.000" stroke="#ea580c" stroke-width="3"/>
<text x="1460.000" y="872.000" font-size="11" font-family="sans-serif">Implementation 2 (MM-1D)</text>
<polyline fill="none" stroke="#059669" stroke-width="2.5" points="90,1010.9 252.5,1009.87 523.333,1002.02 902.5,983.741 1390,935.033"/>
<circle cx="90.000" cy="1010.903" r="4" fill="#059669"/>
<circle cx="252.500" cy="1009.869" r="4" fill="#059669"/>
<circle cx="523.333" cy="1002.017" r="4" fill="#059669"/>
<circle cx="902.500" cy="983.741" r="4" fill="#059669"/>
<circle cx="1390.000" cy="935.033" r="4" fill="#059669"/>
<line x1="1400.000" y1="886.000" x2="1450.000" y2="886.000" stroke="#059669" stroke-width="3"/>
<text x="1460.000" y="890.000" font-size="11" font-family="sans-serif">Implementation 3 (MM-2D)</text>
</g>
</svg>
