<svg xmlns="http://www.w3.org/2000/svg" width="1600" height="1220" viewBox="0 0 1600 1220">
<rect width="100%" height="100%" fill="#f8fafc"/>
<text x="800" y="36" text-anchor="middle" font-size="24" font-family="sans-serif">Matrix Multiplication Benchmark Summary</text>
<text x="800" y="60" text-anchor="middle" font-size="13" font-family="sans-serif" fill="#475569">Dimensions: m=3000, n=1200, q=1200</text>
<g>
<text x="740" y="108" text-anchor="middle" font-size="18" font-family="sans-serif">Runtime by P</text>
<rect x="90" y="120" width="1300" height="245" fill="#ffffff" stroke="#cbd5e1"/>
<line x1="90" y1="365" x2="1390" y2="365" stroke="#e2e8f0" stroke-dasharray="4,4"/>
<text x="80" y="369" text-anchor="end" font-size="11" font-family="monospace">0.000</text>
<line x1="90.000" y1="316.000" x2="1390.000" y2="316.000" stroke="#e2e8f0" stroke-dasharray="4,4"/>
<text x="80.000" y="320.000" text-anchor="end" font-size="11" font-family="monospace">1.211</text>
<line x1="90.000" y1="267.000" x2="1390.000" y2="267.000" stroke="#e2e8f0" stroke-dasharray="4,4"/>
<text x="80.000" y="271.000" text-anchor="end" font-size="11" font-family="monospace">2.421</text>
<line x1="90.000" y1="218.000" x2="1390.000" y2="218.000" stroke="#e2e8f0" stroke-dasharray="4,4"/>
<text x="80.000" y="222.000" text-anchor="end" font-size="11" font-family="monospace">3.632</text>
<line x1="90.000" y1="169.000" x2="1390.000" y2="169.000" stroke="#e2e8f0" stroke-dasharray="4,4"/>
<text x="80.000" y="173.000" text-anchor="end" font-size="11" font-family="monospace">4.842</text>
<line x1="90.000" y1="120.000" x2="1390.000" y2="120.000" stroke="#e2e8f0" stroke-dasharray="4,4"/>
<text x="80.000" y="124.000" text-anchor="end" font-size="11" font-family="monospace">6.053</text>
<line x1="90.000" y1="120.000" x2="90.000" y2="365.000" stroke="#f1f5f9"/>
<text x="90.000" y="385.000" text-anchor="middle" font-size="11" font-family="monospace">1</text>
<line x1="252.500" y1="120.000" x2="252.500" y2="365.000" stroke="#f1f5f9"/>
<text x="252.500" y="385.000" text-anchor="middle" font-size="11" font-family="monospace">4</text>
<line x1="523.333" y1="120.000" x2="523.333" y2="365.000" stroke="#f1f5f9"/>
<text x="523.333" y="385.000" text-anchor="middle" font-size="11" font-family="monospace">9</text>
<line x1="902.500" y1="120.000" x2="902.500" y2="365.000" stroke="#f1f5f9"/>
<text x="902.500" y="385.000" text-anchor="middle" font-size="11" font-family="monospace">16</text>
<line x1="1390.000" y1="120.000" x2="1390.000" y2="365.000" stroke="#f1f5f9"/>
<text x="1390.000" y="385.000" text-anchor="middle" font-size="11" font-family="monospace">25</text>
<text x="740.000" y="410.000" text-anchor="middle" font-size="12" font-family="sans-serif">P (threads / processors)</text>
<text x="38.000" y="242.500" transform="rotate(-90 30.000 242.500)" text-anchor="middle" font-size="12" font-family="sans-serif">Seconds</text>
<polyline fill="none" stroke="#1d4ed8" stroke-width="2.5" points="90,142.273 252.5,142.273 523.333,142.273 902.5,142.273 1390,142.273"/>
<circle cx="90.000" cy="142.273" r="4" fill="#1d4ed8"/>
<circle cx="252.500" cy="142.273" r="4" fill="#1d4ed8"/>
<circle cx="523.333" cy="142.273" r="4" fill="#1d4ed8"/>
<circle cx="902.500" cy="142.273" r="4" fill="#1d4ed8"/>
<circle cx="1390.000" cy="142.273" r="4" fill="#1d4ed8"/>
<line x1="1400.000" y1="130.000" x2="1450.000" y2="130.000" stroke="#1d4ed8" stroke-width="3"/>
<text x="1460.000" y="134.000" font-size="11" font-family="sans-serif">Implementation 1 (Serial)</text>
<polyline fill="none" stroke="#ea580c" stroke-width="2.5" points="90,160.175 252.5,286.689 523.333,311.942 902.5,330.773 1390,323.504"/>
<circle cx="90.000" cy="160.175" r="4" fill="#ea580c"/>
<circle cx="252.500" cy="286.689" r="4" fill="#ea580c"/>
<circle cx="523.333" cy="311.942" r="4" fill="#ea580c"/>
<circle cx="902.500" cy="330.773" r="4" fill="#ea580c"/>
<circle cx="1390.000" cy="323.504" r="4" fill="#ea580c"/>
<line x1="1400.000" y1="148.000" x2="1450.000" y2="148.000" stroke="#ea580c" stroke-width="3"/>
<text x="1460.000" y="152.000" font-size="11" font-family="sans-serif">Implementation 2 (MM-1D)</text>
<polyline fill="none" stroke="#059669" stroke-width="2.5" points="90,162.916 252.5,310.72 523.333,336.195 902.5,348.399 1390,344.246"/>
<circle cx="90.000" cy="162.916" r="4" fill="#059669"/>
<circle cx="252.500" cy="310.720" r="4" fill="#059669"/>
<circle cx="523.333" cy="336.195" r="4" fill="#059669"/>
<circle cx="902.500" cy="348.399" r="4" fill="#059669"/>
<circle cx="1390.000" cy="344.246" r="4" fill="#059669"/>
<line x1="1400.000" y1="166.000" x2="1450.000" y2="166.000" stroke="#059669" stroke-width="3"/>
<text x="1460.000" y="170.000" font-size="11" font-family="sans-serif">Implementation 3 (MM-2D)</text>
</g>
<g>
<text x="740.000" y="468.000" text-anchor="middle" font-size="18" font-family="sans-serif">Speedup vs P=1</text>
<rect x="90.000" y="480.000" width="1300.000" height="245.000" fill="#ffffff" stroke="#cbd5e1"/>
<line x1="90.000" y1="725.000" x2="1390.000" y2="725.000" stroke="#e2e8f0" stroke-dasharray="4,4"/>
<text x="80.000" y="729.000" text-anchor="end" font-size="11" font-family="monospace">0.000</text>
<line x1="90.000" y1="676.000" x2="1390.000" y2="676.000" stroke="#e2e8f0" stroke-dasharray="4,4"/>
<text x="80.000" y="680.000" text-anchor="end" font-size="11" font-family="monospace">2.678</text>
<line x1="90.000" y1="627.000" x2="1390.000" y2="627.000" stroke="#e2e8f0" stroke-dasharray="4,4"/>
<text x="80.000" y="631.000" text-anchor="end" font-size="11" font-family="monospace">5.356</text>
<line x1="90.000" y1="578.000" x2="1390.000" y2="578.000" stroke="#e2e8f0" stroke-dasharray="4,4"/>
<text x="80.000" y="582.000" text-anchor="end" font-size="11" font-family="monospace">8.034</text>
<line x1="90.000" y1="529.000" x2="1390.000" y2="529.000" stroke="#e2e8f0" stroke-dasharray="4,4"/>
<text x="80.000" y="533.000" text-anchor="end" font-size="11" font-family="monospace">10.712</text>
<line x1="90.000" y1="480.000" x2="1390.000" y2="480.000" stroke="#e2e8f0" stroke-dasharray="4,4"/>
<text x="80.000" y="484.000" text-anchor="end" font-size="11" font-family="monospace">13.390</text>
<line x1="90.000" y1="480.000" x2="90.000" y2="725.000" stroke="#f1f5f9"/>
<text x="90.000" y="745.000" text-anchor="middle" font-size="11" font-family="monospace">1</text>
<line x1="252.500" y1="480.000" x2="252.500" y2="725.000" stroke="#f1f5f9"/>
<text x="252.500" y="745.000" text-anchor="middle" font-size="11" font-family="monospace">4</text>
<line x1="523.333" y1="480.000" x2="523.333" y2="725.000" stroke="#f1f5f9"/>
<text x="523.333" y="745.000" text-anchor="middle" font-size="11" font-family="monospace">9</text>
<line x1="902.500" y1="480.000" x2="902.500" y2="725.000" stroke="#f1f5f9"/>
<text x="902.500" y="745.000" text-anchor="middle" font-size="11" font-family="monospace">16</text>
<line x1="1390.000" y1="480.000" x2="1390.000" y2="725.000" stroke="#f1f5f9"/>
<text x="1390.000" y="745.000" text-anchor="middle" font-size="11" font-family="monospace">25</text>
<text x="740.000" y="770.000" text-anchor="middle" font-size="12" font-family="sans-serif">P (threads / processors)</text>
<text x="38.000" y="602.500" transform="rotate(-90 30.000 602.500)" text-anchor="middle" font-size="12" font-family="sans-serif">Speedup</text>
<polyline fill="none" stroke="#1d4ed8" stroke-width="2.5" points="90,706.703 252.5,706.703 523.333,706.703 902.5,706.703 1390,706.703"/>
<circle cx="90.000" cy="706.703" r="4" fill="#1d4ed8"/>
<circle cx="252.500" cy="706.703" r="4" fill="#1d4ed8"/>
<circle cx="523.333" cy="706.703" r="4" fill="#1d4ed8"/>
<circle cx="902.500" cy="706.703" r="4" fill="#1d4ed8"/>
<circle cx="1390.000" cy="706.703" r="4" fill="#1d4ed8"/>
<line x1="1400.000" y1="490.000" x2="1450.000" y2="490.000" stroke="#1d4ed8" stroke-width="3"/>
<text x="1460.000" y="494.000" font-size="11" font-family="sans-serif">Implementation 1 (Serial)</text>
<polyline fill="none" stroke="#ea580c" stroke-width="2.5" points="90,706.703 252.5,677.144 523.333,654.367 902.5,615.506 1390,634.687"/>
<circle cx="90.000" cy="706.703" r="4" fill="#ea580c"/>
<circle cx="252.500" cy="677.144" r="4" fill="#ea580c"/>
<circle cx="523.333" cy="654.367" r="4" fill="#ea580c"/>
<circle cx="902.500" cy="615.506" r="4" fill="#ea580c"/>
<circle cx="1390.000" cy="634.687" r="4" fill="#ea580c"/>
<line x1="1400.000" y1="508.000" x2="1450.000" y2="508.000" stroke="#ea580c" stroke-width="3"/>
<text x="1460.000" y="512.000" font-size="11" font-family="sans-serif">Implementation 2 (MM-1D)</text>
<polyline fill="none" stroke="#059669" stroke-width="2.5" points="90,706.703 252.5,656.88 523.333,596.635 902.5,502.273 1390,546.837"/>
<circle cx="90.000" cy="706.703" r="4" fill="#059669"/>
<circle cx="252.500" cy="656.880" r="4" fill="#059669"/>
<circle cx="523.333" cy="596.635" r="4" fill="#059669"/>
<circle cx="902.500" cy="502.273" r="4" fill="#059669"/>
<circle cx="1390.000" cy="546.837" r="4" fill="#059669"/>
<line x1="1400.000" y1="526.000" x2="1450.000" y2="526.000" stroke="#059669" stroke-width="3"/>
<text x="1460.000" y="530.000" font-size="11" font-family="sans-serif">Implementation 3 (MM-2D)</text>
</g>
<g>
<text x="740.000" y="828.000" text-anchor="middle" font-size="18" font-family="sans-serif">Cost vs Serial</text>
<rect x="90.000" y="840.000" width="1300.000" height="245.000" fill="#ffffff" stroke="#cbd5e1"/>
<line x1="90.000" y1="1085.000" x2="1390.000" y2="1085.000" stroke="#e2e8f0" stroke-dasharray="4,4"/>
<text x="80.000" y="1089.000" text-anchor="end" font-size="11" font-family="monospace">0.000</text>
<line x1="90.000" y1="1036.000" x2="1390.000" y2="1036.000" stroke="#e2e8f0" stroke-dasharray="4,4"/>
<text x="80.000" y="1040.000" text-anchor="end" font-size="11" font-family="monospace">5.638</text>
<line x1="90.000" y1="987.000" x2="1390.000" y2="987.000" stroke="#e2e8f0" stroke-dasharray="4,4"/>
<text x="80.000" y="991.000" text-anchor="end" font-size="11" font-family="monospace">11.277</text>
<line x1="90.000" y1="938.000" x2="1390.000" y2="938.000" stroke="#e2e8f0" stroke-dasharray="4,4"/>
<text x="80.000" y="942.000" text-anchor="end" font-size="11" font-family="monospace">16.915</text>
<line x1="90.000" y1="889.000" x2="1390.000" y2="889.000" stroke="#e2e8f0" stroke-dasharray="4,4"/>
<text x="80.000" y="893.000" text-anchor="end" font-size="11" font-family="monospace">22.554</text>
<line x1="90.000" y1="840.000" x2="1390.000" y2="840.000" stroke="#e2e8f0" stroke-dasharray="4,4"/>
<text x="80.000" y="844.000" text-anchor="end" font-size="11" font-family="monospace">28.192</text>
<line x1="90.000" y1="840.000" x2="90.000" y2="1085.000" stroke="#f1f5f9"/>
<text x="90.000" y="1105.000" text-anchor="middle" font-size="11" font-family="monospace">1</text>
<line x1="252.500" y1="840.000" x2="252.500" y2="1085.000" stroke="#f1f5f9"/>
<text x="252.500" y="1105.000" text-anchor="middle" font-size="11" font-family="monospace">4</text>
<line x1="523.333" y1="840.000" x2="523.333" y2="1085.000" stroke="#f1f5f9"/>
<text x="523.333" y="1105.000" text-anchor="middle" font-size="11" font-family="monospace">9</text>
<line x1="902.500" y1="840.000" x2="902.500" y2="1085.000" stroke="#f1f5f9"/>
<text x="902.500" y="1105.000" text-anchor="middle" font-size="11" font-family="monospace">16</text>
<line x1="1390.000" y1="840.000" x2="1390.000" y2="1085.000" stroke="#f1f5f9"/>
<text x="1390.000" y="1105.000" text-anchor="middle" font-size="11" font-family="monospace">25</text>
<text x="740.000" y="1130.000" text-anchor="middle" font-size="12" font-family="sans-serif">P (threads / processors)</text>
<text x="38.000" y="962.500" transform="rotate(-90 30.000 962.500)" text-anchor="middle" font-size="12" font-family="sans-serif">Cost</text>
<polyline fill="none" stroke="#1d4ed8" stroke-width="2.5" points="90,1037.18 252.5,1037.18 523.333,1037.18 902.5,1037.18 1390,1037.18"/>
<circle cx="90.000" cy="1037.181" r="4" fill="#1d4ed8"/>
<circle cx="252.500" cy="1037.181" r="4" fill="#1d4ed8"/>
<circle cx="523.333" cy="1037.181" r="4" fill="#1d4ed8"/>
<circle cx="902.500" cy="1037.181" r="4" fill="#1d4ed8"/>
<circle cx="1390.000" cy="1037.181" r="4" fill="#1d4ed8"/>
<line x1="1400.000" y1="850.000" x2="1450.000" y2="850.000" stroke="#1d4ed8" stroke-width="3"/>
<text x="1460.000" y="854.000" font-size="11" font-family="sans-serif">Implementation 1 (Serial)</text>
<polyline fill="none" stroke="#ea580c" stroke-width="2.5" points="90,1041.02 252.5,1017.75 523.333,982.478 902.5,967.425 1390,862.273"/>
<circle cx="90.000" cy="1041.025" r="4" fill="#ea580c"/>
<circle cx="252.500" cy="1017.748" r="4" fill="#ea580c"/>
<circle cx="523.333" cy="982.478" r="4" fill="#ea580c"/>
<circle cx="902.500" cy="967.425" r="4" fill="#ea580c"/>
<circle cx="1390.000" cy="862.273" r="4" fill="#ea580c"/>
<line x1="1400.000" y1="868.000" x2="1450.000" y2="868.000" stroke="#ea580c" stroke-width="3"/>
<text x="1460.000" y="872.000" font-size="11" font-family="sans-serif">Implementation 2 (MM-1D)</text>
<polyline fill="none" stroke="#059669" stroke-width="2.5" points="90,1041.61 252.5,1038.39 523.333,1029.34 902.5,1027.97 1390,973.607"/>
<circle cx="90.000" cy="1041.613" r="4" fill="#059669"/>
<circle cx="252.500" cy="1038.385" r="4" fill="#059669"/>
<circle cx="523.333" cy="1029.342" r="4" fill="#059669"/>
<circle cx="902.500" cy="1027.973" r="4" fill="#059669"/>
<circle cx="1390.000" cy="973.607" r="4" fill="#059669"/>
<line x1="1400.000" y1="886.000" x2="1450.000" y2="886.000" stroke="#059669" stroke-width="3"/>
<text x="1460.000" y="890.000" font-size="11" font-family="sans-serif">Implementation 3 (MM-2D)</text>
</g>
</svg>
