<svg xmlns="http://www.w3.org/2000/svg" width="1600" height="1220" viewBox="0 0 1600 1220">
<rect width="100%" height="100%" fill="#f8fafc"/>
<text x="800" y="36" text-anchor="middle" font-size="24" font-family="sans-serif">Matrix Multiplication Benchmark Summary</text>
<text x="800" y="60" text-anchor="middle" font-size="13" font-family="sans-serif" fill="#475569">Dimensions: m=3000, n=1200, q=1200</text>
<g>
<text x="740" y="108" text-anchor="middle" font-size="18" font-family="sans-serif">Runtime by P</text>
<rect x="90" y="120" width="1300" height="245" fill="#ffffff" stroke="#cbd5e1"/>
<line x1="90" y1="365" x2="1390" y2="365" stroke="#e2e8f0" stroke-dasharray="4,4"/>
<text x="80" y="369" text-anchor="end" font-size="11" font-family="monospace">0.000</text>
<line x1="90.000" y1="316.000" x2="1390.000" y2="316.000" stroke="#e2e8f0" stroke-dasharray="4,4"/>
<text x="80.000" y="320.000" text-anchor="end" font-size="11" font-family="monospace">10.600</text>
<line x1="90.000" y1="267.000" x2="1390.000" y2="267.000" stroke="#e2e8f0" stroke-dasharray="4,4"/>
<text x="80.000" y="271.000" text-anchor="end" font-size="11" font-family="monospace">21.200</text>
<line x1="90.000" y1="218.000" x2="1390.000" y2="218.000" stroke="#e2e8f0" stroke-dasharray="4,4"/>
<text x="80.000" y="222.000" text-anchor="end" font-size="11" font-family="monospace">31.800</text>
<line x1="90.000" y1="169.000" x2="1390.000" y2="169.000" stroke="#e2e8f0" stroke-dasharray="4,4"/>
<text x="80.000" y="173.000" text-anchor="end" font-size="11" font-family="monospace">42.400</text>
<line x1="90.000" y1="120.000" x2="1390.000" y2="120.000" stroke="#e2e8f0" stroke-dasharray="4,4"/>
<text x="80.000" y="124.000" text-anchor="end" font-size="11" font-family="monospace">53.000</text>
<line x1="90.000" y1="120.000" x2="90.000" y2="365.000" stroke="#f1f5f9"/>
<text x="90.000" y="385.000" text-anchor="middle" font-size="11" font-family="monospace">1</text>
<line x1="252.500" y1="120.000" x2="252.500" y2="365.000" stroke="#f1f5f9"/>
<text x="252.500" y="385.000" text-anchor="middle" font-size="11" font-family="monospace">4</text>
<line x1="523.333" y1="120.000" x2="523.333" y2="365.000" stroke="#f1f5f9"/>
<text x="523.333" y="385.000" text-anchor="middle" font-size="11" font-family="monospace">9</text>
<line x1="902.500" y1="120.000" x2="902.500" y2="365.000" stroke="#f1f5f9"/>
<text x="902.500" y="385.000" text-anchor="middle" font-size="11" font-family="monospace">16</text>
<line x1="1390.000" y1="120.000" x2="1390.000" y2="365.000" stroke="#f1f5f9"/>
<text x="1390.000" y="385.000" text-anchor="middle" font-size="11" font-family="monospace">25</text>
<text x="740.000" y="410.000" text-anchor="middle" font-size="12" font-family="sans-serif">P (threads / processors)</text>
<text x="38.000" y="242.500" transform="rotate(-90 30.000 242.500)" text-anchor="middle" font-size="12" font-family="sans-serif">Seconds</text>
<polyline fill="none" stroke="#1d4ed8" stroke-width="2.5" points="90,168.805 252.5,167.093 523.333,170.08 902.5,170.449 1390,170.664"/>
<circle cx="90.000" cy="168.805" r="4" fill="#1d4ed8"/>
<circle cx="252.500" cy="167.093" r="4" fill="#1d4ed8"/>
<circle cx="523.333" cy="170.080" r="4" fill="#1d4ed8"/>
<circle cx="902.500" cy="170.449" r="4" fill="#1d4ed8"/>
<circle cx="1390.000" cy="170.664" r="4" fill="#1d4ed8"/>
<line x1="1400.000" y1="130.000" x2="1450.000" y2="130.000" stroke="#1d4ed8" stroke-width="3"/>
<text x="1460.000" y="134.000" font-size="11" font-family="sans-serif">Implementation 1 (Serial)</text>
<polyline fill="none" stroke="#ea580c" stroke-width="2.5" points="90,211.546 252.5,311.621 523.333,336.9 902.5,347.726 1390,346.149"/>
<circle cx="90.000" cy="211.546" r="4" fill="#ea580c"/>
<circle cx="252.500" cy="311.621" r="4" fill="#ea580c"/>
<circle cx="523.333" cy="336.900" r="4" fill="#ea580c"/>
<circle cx="902.500" cy="347.726" r="4" fill="#ea580c"/>
<circle cx="1390.000" cy="346.149" r="4" fill="#ea580c"/>
<line x1="1400.000" y1="148.000" x2="1450.000" y2="148.000" stroke="#ea580c" stroke-width="3"/>
<text x="1460.000" y="152.000" font-size="11" font-family="sans-serif">Implementation 2 (MM-1D)</text>
<polyline fill="none" stroke="#059669" stroke-width="2.5" points="90,214.805 252.5,246.302 523.333,231.463 902.5,209.884 1390,142.273"/>
<circle cx="90.000" cy="214.805" r="4" fill="#059669"/>
<circle cx="252.500" cy="246.302" r="4" fill="#059669"/>
<circle cx="523.333" cy="231.463" r="4" fill="#059669"/>
<circle cx="902.500" cy="209.884" r="4" fill="#059669"/>
<circle cx="1390.000" cy="142.273" r="4" fill="#059669"/>
<line x1="1400.000" y1="166.000" x2="1450.000" y2="166.000" stroke="#059669" stroke-width="3"/>
<text x="1460.000" y="170.000" font-size="11" font-family="sans-serif">Implementation 3 (MM-2D)</text>
</g>
<g>
<text x="740.000" y="468.000" text-anchor="middle" font-size="18" font-family="sans-serif">Speedup vs Serial</text>
<rect x="90.000" y="480.000" width="1300.000" height="245.000" fill="#ffffff" stroke="#cbd5e1"/>
<line x1="90.000" y1="725.000" x2="1390.000" y2="725.000" stroke="#e2e8f0" stroke-dasharray="4,4"/>
<text x="80.000" y="729.000" text-anchor="end" font-size="11" font-family="monospace">0.000</text>
<line x1="90.000" y1="676.000" x2="1390.000" y2="676.000" stroke="#e2e8f0" stroke-dasharray="4,4"/>
<text x="80.000" y="680.000" text-anchor="end" font-size="11" font-family="monospace">2.478</text>
<line x1="90.000" y1="627.000" x2="1390.000" y2="627.000" stroke="#e2e8f0" stroke-dasharray="4,4"/>
<text x="80.000" y="631.000" text-anchor="end" font-size="11" font-family="monospace">4.956</text>
<line x1="90.000" y1="578.000" x2="1390.000" y2="578.000" stroke="#e2e8f0" stroke-dasharray="4,4"/>
<text x="80.000" y="582.000" text-anchor="end" font-size="11" font-family="monospace">7.434</text>
<line x1="90.000" y1="529.000" x2="1390.000" y2="529.000" stroke="#e2e8f0" stroke-dasharray="4,4"/>
<text x="80.000" y="533.000" text-anchor="end" font-size="11" font-family="monospace">9.911</text>
<line x1="90.000" y1="480.000" x2="1390.000" y2="480.000" stroke="#e2e8f0" stroke-dasharray="4,4"/>
<text x="80.000" y="484.000" text-anchor="end" font-size="11" font-family="monospace">12.389</text>
<line x1="90.000" y1="480.000" x2="90.000" y2="725.000" stroke="#f1f5f9"/>
<text x="90.000" y="745.000" text-anchor="middle" font-size="11" font-family="monospace">1</text>
<line x1="252.500" y1="480.000" x2="252.500" y2="725.000" stroke="#f1f5f9"/>
<text x="252.500" y="745.000" text-anchor="middle" font-size="11" font-family="monospace">4</text>
<line x1="523.333" y1="480.000" x2="523.333" y2="725.000" stroke="#f1f5f9"/>
<text x="523.333" y="745.000" text-anchor="middle" font-size="11" font-family="monospace">9</text>
<line x1="902.500" y1="480.000" x2="902.500" y2="725.000" stroke="#f1f5f9"/>
<text x="902.500" y="745.000" text-anchor="middle" font-size="11" font-family="monospace">16</text>
<line x1="1390.000" y1="480.000" x2="1390.000" y2="725.000" stroke="#f1f5f9"/>
<text x="1390.000" y="745.000" text-anchor="middle" font-size="11" font-family="monospace">25</text>
<text x="740.000" y="770.000" text-anchor="middle" font-size="12" font-family="sans-serif">P (threads / processors)</text>
<text x="38.000" y="602.500" transform="rotate(-90 30.000 602.500)" text-anchor="middle" font-size="12" font-family="sans-serif">Speedup</text>
<polyline fill="none" stroke="#1d4ed8" stroke-width="2.5" points="90,705.225 252.5,705.225 523.333,705.225 902.5,705.225 1390,705.225"/>
<circle cx="90.000" cy="705.225" r="4" fill="#1d4ed8"/>
<circle cx="252.500" cy="705.225" r="4" fill="#1d4ed8"/>
<circle cx="523.333" cy="705.225" r="4" fill="#1d4ed8"/>
<circle cx="902.500" cy="705.225" r="4" fill="#1d4ed8"/>
<circle cx="1390.000" cy="705.225" r="4" fill="#1d4ed8"/>
<line x1="1400.000" y1="490.000" x2="1450.000" y2="490.000" stroke="#1d4ed8" stroke-width="3"/>
<text x="1460.000" y="494.000" font-size="11" font-family="sans-serif">Implementation 1 (Serial)</text>
<polyline fill="none" stroke="#ea580c" stroke-width="2.5" points="90,699.717 252.5,651.682 523.333,587.823 902.5,502.273 1390,521.134"/>
<circle cx="90.000" cy="699.717" r="4" fill="#ea580c"/>
<circle cx="252.500" cy="651.682" r="4" fill="#ea580c"/>
<circle cx="523.333" cy="587.823" r="4" fill="#ea580c"/>
<circle cx="902.500" cy="502.273" r="4" fill="#ea580c"/>
<circle cx="1390.000" cy="521.134" r="4" fill="#ea580c"/>
<line x1="1400.000" y1="508.000" x2="1450.000" y2="508.000" stroke="#ea580c" stroke-width="3"/>
<text x="1460.000" y="512.000" font-size="11" font-family="sans-serif">Implementation 2 (MM-1D)</text>
<polyline fill="none" stroke="#059669" stroke-width="2.5" points="90,699.168 252.5,692.028 523.333,696.135 902.5,700.197 1390,707.745"/>
<circle cx="90.000" cy="699.168" r="4" fill="#059669"/>
<circle cx="252.500" cy="692.028" r="4" fill="#059669"/>
<circle cx="523.333" cy="696.135" r="4" fill="#059669"/>
<circle cx="902.500" cy="700.197" r="4" fill="#059669"/>
<circle cx="1390.000" cy="707.745" r="4" fill="#059669"/>
<line x1="1400.000" y1="526.000" x2="1450.000" y2="526.000" stroke="#059669" stroke-width="3"/>
<text x="1460.000" y="530.000" font-size="11" font-family="sans-serif">Implementation 3 (MM-2D)</text>
</g>
<g>
<text x="740.000" y="828.000" text-anchor="middle" font-size="18" font-family="sans-serif">Cost vs Serial</text>
<rect x="90.000" y="840.000" width="1300.000" height="245.000" fill="#ffffff" stroke="#cbd5e1"/>
<line x1="90.000" y1="1085.000" x2="1390.000" y2="1085.000" stroke="#e2e8f0" stroke-dasharray="4,4"/>
<text x="80.000" y="1089.000" text-anchor="end" font-size="11" font-family="monospace">0.000</text>
<line x1="90.000" y1="1036.000" x2="1390.000" y2="1036.000" stroke="#e2e8f0" stroke-dasharray="4,4"/>
<text x="80.000" y="1040.000" text-anchor="end" font-size="11" font-family="monospace">265.001</text>
<line x1="90.000" y1="987.000" x2="1390.000" y2="987.000" stroke="#e2e8f0" stroke-dasharray="4,4"/>
<text x="80.000" y="991.000" text-anchor="end" font-size="11" font-family="monospace">530.002</text>
<line x1="90.000" y1="938.000" x2="1390.000" y2="938.000" stroke="#e2e8f0" stroke-dasharray="4,4"/>
<text x="80.000" y="942.000" text-anchor="end" font-size="11" font-family="monospace">795.003</text>
<line x1="90.000" y1="889.000" x2="1390.000" y2="889.000" stroke="#e2e8f0" stroke-dasharray="4,4"/>
<text x="80.000" y="893.000" text-anchor="end" font-size="11" font-family="monospace">1060.004</text>
<line x1="90.000" y1="840.000" x2="1390.000" y2="840.000" stroke="#e2e8f0" stroke-dasharray="4,4"/>
<text x="80.000" y="844.000" text-anchor="end" font-size="11" font-family="monospace">1325.005</text>
<line x1="90.000" y1="840.000" x2="90.000" y2="1085.000" stroke="#f1f5f9"/>
<text x="90.000" y="1105.000" text-anchor="middle" font-size="11" font-family="monospace">1</text>
<line x1="252.500" y1="840.000" x2="252.500" y2="1085.000" stroke="#f1f5f9"/>
<text x="252.500" y="1105.000" text-anchor="middle" font-size="11" font-family="monospace">4</text>
<line x1="523.333" y1="840.000" x2="523.333" y2="1085.000" stroke="#f1f5f9"/>
<text x="523.333" y="1105.000" text-anchor="middle" font-size="11" font-family="monospace">9</text>
<line x1="902.500" y1="840.000" x2="902.500" y2="1085.000" stroke="#f1f5f9"/>
<text x="902.500" y="1105.000" text-anchor="middle" font-size="11" font-family="monospace">16</text>
<line x1="1390.000" y1="840.000" x2="1390.000" y2="1085.000" stroke="#f1f5f9"/>
<text x="1390.000" y="1105.000" text-anchor="middle" font-size="11" font-family="monospace">25</text>
<text x="740.000" y="1130.000" text-anchor="middle" font-size="12" font-family="sans-serif">P (threads / processors)</text>
<text x="38.000" y="962.500" transform="rotate(-90 30.000 962.500)" text-anchor="middle" font-size="12" font-family="sans-serif">Cost</text>
<polyline fill="none" stroke="#1d4ed8" stroke-width="2.5" points="90,1077.15 252.5,1077.08 523.333,1077.2 902.5,1077.22 1390,1077.23"/>
<circle cx="90.000" cy="1077.152" r="4" fill="#1d4ed8"/>
<circle cx="252.500" cy="1077.084" r="4" fill="#1d4ed8"/>
<circle cx="523.333" cy="1077.203" r="4" fill="#1d4ed8"/>
<circle cx="902.500" cy="1077.218" r="4" fill="#1d4ed8"/>
<circle cx="1390.000" cy="1077.227" r="4" fill="#1d4ed8"/>
<line x1="1400.000" y1="850.000" x2="1450.000" y2="850.000" stroke="#1d4ed8" stroke-width="3"/>
<text x="1460.000" y="854.000" font-size="11" font-family="sans-serif">Implementation 1 (Serial)</text>
<polyline fill="none" stroke="#ea580c" stroke-width="2.5" points="90,1078.86 252.5,1076.46 523.333,1074.88 902.5,1073.94 1390,1066.15"/>
<circle cx="90.000" cy="1078.862" r="4" fill="#ea580c"/>
<circle cx="252.500" cy="1076.459" r="4" fill="#ea580c"/>
<circle cx="523.333" cy="1074.884" r="4" fill="#ea580c"/>
<circle cx="902.500" cy="1073.945" r="4" fill="#ea580c"/>
<circle cx="1390.000" cy="1066.149" r="4" fill="#ea580c"/>
<line x1="1400.000" y1="868.000" x2="1450.000" y2="868.000" stroke="#ea580c" stroke-width="3"/>
<text x="1460.000" y="872.000" font-size="11" font-family="sans-serif">Implementation 2 (MM-1D)</text>
<polyline fill="none" stroke="#059669" stroke-width="2.5" points="90,1078.99 252.5,1066.01 523.333,1036.93 902.5,985.726 1390,862.273"/>
<circle cx="90.000" cy="1078.992" r="4" fill="#059669"/>
<circle cx="252.500" cy="1066.008" r="4" fill="#059669"/>
<circle cx="523.333" cy="1036.927" r="4" fill="#059669"/>
<circle cx="902.500" cy="985.726" r="4" fill="#059669"/>
<circle cx="1390.000" cy="862.273" r="4" fill="#059669"/>
<line x1="1400.000" y1="886.000" x2="1450.000" y2="886.000" stroke="#059669" stroke-width="3"/>
<text x="1460.000" y="890.000" font-size="11" font-family="sans-serif">Implementation 3 (MM-2D)</text>
</g>
</svg>
