<svg xmlns="http://www.w3.org/2000/svg" width="1600" height="1220" viewBox="0 0 1600 1220">
<rect width="100%" height="100%" fill="#f8fafc"/>
<text x="800" y="36" text-anchor="middle" font-size="24" font-family="sans-serif">Matrix Multiplication Benchmark Summary</text>
<text x="800" y="60" text-anchor="middle" font-size="13" font-family="sans-serif" fill="#475569">Dimensions: m=4200, n=3600, q=2400</text>
<g>
<text x="740" y="108" text-anchor="middle" font-size="18" font-family="sans-serif">Runtime by P</text>
<rect x="90" y="120" width="1300" height="245" fill="#ffffff" stroke="#cbd5e1"/>
<line x1="90" y1="365" x2="1390" y2="365" stroke="#e2e8f0" stroke-dasharray="4,4"/>
<text x="80" y="369" text-anchor="end" font-size="11" font-family="monospace">0.000</text>
<line x1="90.000" y1="316.000" x2="1390.000" y2="316.000" stroke="#e2e8f0" stroke-dasharray="4,4"/>
<text x="80.000" y="320.000" text-anchor="end" font-size="11" font-family="monospace">24.912</text>
<line x1="90.000" y1="267.000" x2="1390.000" y2="267.000" stroke="#e2e8f0" stroke-dasharray="4,4"/>
<text x="80.000" y="271.000" text-anchor="end" font-size="11" font-family="monospace">49.824</text>
<line x1="90.000" y1="218.000" x2="1390.000" y2="218.000" stroke="#e2e8f0" stroke-dasharray="4,4"/>
<text x="80.000" y="222.000" text-anchor="end" font-size="11" font-family="monospace">74.736</text>
<line x1="90.000" y1="169.000" x2="1390.000" y2="169.000" stroke="#e2e8f0" stroke-dasharray="4,4"/>
<text x="80.000" y="173.000" text-anchor="end" font-size="11" font-family="monospace">99.648</text>
<line x1="90.000" y1="120.000" x2="1390.000" y2="120.000" stroke="#e2e8f0" stroke-dasharray="4,4"/>
<text x="80.000" y="124.000" text-anchor="end" font-size="11" font-family="monospace">124.560</text>
<line x1="90.000" y1="120.000" x2="90.000" y2="365.000" stroke="#f1f5f9"/>
<text x="90.000" y="385.000" text-anchor="middle" font-size="11" font-family="monospace">1</text>
<line x1="252.500" y1="120.000" x2="252.500" y2="365.000" stroke="#f1f5f9"/>
<text x="252.500" y="385.000" text-anchor="middle" font-size="11" font-family="monospace">4</text>
<line x1="523.333" y1="120.000" x2="523.333" y2="365.000" stroke="#f1f5f9"/>
<text x="523.333" y="385.000" text-anchor="middle" font-size="11" font-family="monospace">9</text>
<line x1="902.500" y1="120.000" x2="902.500" y2="365.000" stroke="#f1f5f9"/>
<text x="902.500" y="385.000" text-anchor="middle" font-size="11" font-family="monospace">16</text>
<line x1="1390.000" y1="120.000" x2="1390.000" y2="365.000" stroke="#f1f5f9"/>
<text x="1390.000" y="385.000" text-anchor="middle" font-size="11" font-family="monospace">25</text>
<text x="740.000" y="410.000" text-anchor="middle" font-size="12" font-family="sans-serif">P (threads / processors)</text>
<text x="38.000" y="242.500" transform="rotate(-90 30.000 242.500)" text-anchor="middle" font-size="12" font-family="sans-serif">Seconds</text>
<polyline fill="none" stroke="#1d4ed8" stroke-width="2.5" points="90,142.558 252.5,142.558 523.333,142.558 902.5,142.558 1390,142.558"/>
<circle cx="90.000" cy="142.558" r="4" fill="#1d4ed8"/>
<circle cx="252.500" cy="142.558" r="4" fill="#1d4ed8"/>
<circle cx="523.333" cy="142.558" r="4" fill="#1d4ed8"/>
<circle cx="902.500" cy="142.558" r="4" fill="#1d4ed8"/>
<circle cx="1390.000" cy="142.558" r="4" fill="#1d4ed8"/>
<line x1="1400.000" y1="130.000" x2="1450.000" y2="130.000" stroke="#1d4ed8" stroke-width="3"/>
<text x="1460.000" y="134.000" font-size="11" font-family="sans-serif">Implementation 1 (Serial)</text>
<polyline fill="none" stroke="#ea580c" stroke-width="2.5" points="90,142.273 252.5,305.887 523.333,335.174 902.5,347.146 1390,345.165"/>
<circle cx="90.000" cy="142.273" r="4" fill="#ea580c"/>
<circle cx="252.500" cy="305.887" r="4" fill="#ea580c"/>
<circle cx="523.333" cy="335.174" r="4" fill="#ea580c"/>
<circle cx="902.500" cy="347.146" r="4" fill="#ea580c"/>
<circle cx="1390.000" cy="345.165" r="4" fill="#ea580c"/>
<line x1="1400.000" y1="148.000" x2="1450.000" y2="148.000" stroke="#ea580c" stroke-width="3"/>
<text x="1460.000" y="152.000" font-size="11" font-family="sans-serif">Implementation 2 (MM-1D)</text>
<polyline fill="none" stroke="#059669" stroke-width="2.5" points="90,142.613 252.5,323.783 523.333,338.507 902.5,353.482 1390,350.782"/>
<circle cx="90.000" cy="142.613" r="4" fill="#059669"/>
<circle cx="252.500" cy="323.783" r="4" fill="#059669"/>
<circle cx="523.333" cy="338.507" r="4" fill="#059669"/>
<circle cx="902.500" cy="353.482" r="4" fill="#059669"/>
<circle cx="1390.000" cy="350.782" r="4" fill="#059669"/>
<line x1="1400.000" y1="166.000" x2="1450.000" y2="166.000" stroke="#059669" stroke-width="3"/>
<text x="1460.000" y="170.000" font-size="11" font-family="sans-serif">Implementation 3 (MM-2D)</text>
</g>
<g>
<text x="740.000" y="468.000" text-anchor="middle" font-size="18" font-family="sans-serif">Speedup vs P=1</text>
<rect x="90.000" y="480.000" width="1300.000" height="245.000" fill="#ffffff" stroke="#cbd5e1"/>
<line x1="90.000" y1="725.000" x2="1390.000" y2="725.000" stroke="#e2e8f0" stroke-dasharray="4,4"/>
<text x="80.000" y="729.000" text-anchor="end" font-size="11" font-family="monospace">0.000</text>
<line x1="90.000" y1="676.000" x2="1390.000" y2="676.000" stroke="#e2e8f0" stroke-dasharray="4,4"/>
<text x="80.000" y="680.000" text-anchor="end" font-size="11" font-family="monospace">4.248</text>
<line x1="90.000" y1="627.000" x2="1390.000" y2="627.000" stroke="#e2e8f0" stroke-dasharray="4,4"/>
<text x="80.000" y="631.000" text-anchor="end" font-size="11" font-family="monospace">8.495</text>
<line x1="90.000" y1="578.000" x2="1390.000" y2="578.000" stroke="#e2e8f0" stroke-dasharray="4,4"/>
<text x="80.000" y="582.000" text-anchor="end" font-size="11" font-family="monospace">12.743</text>
<line x1="90.000" y1="529.000" x2="1390.000" y2="529.000" stroke="#e2e8f0" stroke-dasharray="4,4"/>
<text x="80.000" y="533.000" text-anchor="end" font-size="11" font-family="monospace">16.991</text>
<line x1="90.000" y1="480.000" x2="1390.000" y2="480.000" stroke="#e2e8f0" stroke-dasharray="4,4"/>
<text x="80.000" y="484.000" text-anchor="end" font-size="11" font-family="monospace">21.239</text>
<line x1="90.000" y1="480.000" x2="90.000" y2="725.000" stroke="#f1f5f9"/>
<text x="90.000" y="745.000" text-anchor="middle" font-size="11" font-family="monospace">1</text>
<line x1="252.500" y1="480.000" x2="252.500" y2="725.000" stroke="#f1f5f9"/>
<text x="252.500" y="745.000" text-anchor="middle" font-size="11" font-family="monospace">4</text>
<line x1="523.333" y1="480.000" x2="523.333" y2="725.000" stroke="#f1f5f9"/>
<text x="523.333" y="745.000" text-anchor="middle" font-size="11" font-family="monospace">9</text>
<line x1="902.500" y1="480.000" x2="902.500" y2="725.000" stroke="#f1f5f9"/>
<text x="902.500" y="745.000" text-anchor="middle" font-size="11" font-family="monospace">16</text>
<line x1="1390.000" y1="480.000" x2="1390.000" y2="725.000" stroke="#f1f5f9"/>
<text x="1390.000" y="745.000" text-anchor="middle" font-size="11" font-family="monospace">25</text>
<text x="740.000" y="770.000" text-anchor="middle" font-size="12" font-family="sans-serif">P (threads / processors)</text>
<text x="38.000" y="602.500" transform="rotate(-90 30.000 602.500)" text-anchor="middle" font-size="12" font-family="sans-serif">Speedup</text>
<polyline fill="none" stroke="#1d4ed8" stroke-width="2.5" points="90,713.464 252.5,713.464 523.333,713.464 902.5,713.464 1390,713.464"/>
<circle cx="90.000" cy="713.464" r="4" fill="#1d4ed8"/>
<circle cx="252.500" cy="713.464" r="4" fill="#1d4ed8"/>
<circle cx="523.333" cy="713.464" r="4" fill="#1d4ed8"/>
<circle cx="902.500" cy="713.464" r="4" fill="#1d4ed8"/>
<circle cx="1390.000" cy="713.464" r="4" fill="#1d4ed8"/>
<line x1="1400.000" y1="490.000" x2="1450.000" y2="490.000" stroke="#1d4ed8" stroke-width="3"/>
<text x="1460.000" y="494.000" font-size="11" font-family="sans-serif">Implementation 1 (Serial)</text>
<polyline fill="none" stroke="#ea580c" stroke-width="2.5" points="90,713.464 252.5,681.536 523.333,638.858 902.5,581.094 1390,595.468"/>
<circle cx="90.000" cy="713.464" r="4" fill="#ea580c"/>
<circle cx="252.500" cy="681.536" r="4" fill="#ea580c"/>
<circle cx="523.333" cy="638.858" r="4" fill="#ea580c"/>
<circle cx="902.500" cy="581.094" r="4" fill="#ea580c"/>
<circle cx="1390.000" cy="595.468" r="4" fill="#ea580c"/>
<line x1="1400.000" y1="508.000" x2="1450.000" y2="508.000" stroke="#ea580c" stroke-width="3"/>
<text x="1460.000" y="512.000" font-size="11" font-family="sans-serif">Implementation 2 (MM-1D)</text>
<polyline fill="none" stroke="#059669" stroke-width="2.5" points="90,713.464 252.5,662.759 523.333,628.167 902.5,502.273 1390,544.573"/>
<circle cx="90.000" cy="713.464" r="4" fill="#059669"/>
<circle cx="252.500" cy="662.759" r="4" fill="#059669"/>
<circle cx="523.333" cy="628.167" r="4" fill="#059669"/>
<circle cx="902.500" cy="502.273" r="4" fill="#059669"/>
<circle cx="1390.000" cy="544.573" r="4" fill="#059669"/>
<line x1="1400.000" y1="526.000" x2="1450.000" y2="526.000" stroke="#059669" stroke-width="3"/>
<text x="1460.000" y="530.000" font-size="11" font-family="sans-serif">Implementation 3 (MM-2D)</text>
</g>
<g>
<text x="740.000" y="828.000" text-anchor="middle" font-size="18" font-family="sans-serif">Cost vs Serial</text>
<rect x="90.000" y="840.000" width="1300.000" height="245.000" fill="#ffffff" stroke="#cbd5e1"/>
<line x1="90.000" y1="1085.000" x2="1390.000" y2="1085.000" stroke="#e2e8f0" stroke-dasharray="4,4"/>
<text x="80.000" y="1089.000" text-anchor="end" font-size="11" font-family="monospace">0.000</text>
<line x1="90.000" y1="1036.000" x2="1390.000" y2="1036.000" stroke="#e2e8f0" stroke-dasharray="4,4"/>
<text x="80.000" y="1040.000" text-anchor="end" font-size="11" font-family="monospace">55.464</text>
<line x1="90.000" y1="987.000" x2="1390.000" y2="987.000" stroke="#e2e8f0" stroke-dasharray="4,4"/>
<text x="80.000" y="991.000" text-anchor="end" font-size="11" font-family="monospace">110.927</text>
<line x1="90.000" y1="938.000" x2="1390.000" y2="938.000" stroke="#e2e8f0" stroke-dasharray="4,4"/>
<text x="80.000" y="942.000" text-anchor="end" font-size="11" font-family="monospace">166.391</text>
<line x1="90.000" y1="889.000" x2="1390.000" y2="889.000" stroke="#e2e8f0" stroke-dasharray="4,4"/>
<text x="80.000" y="893.000" text-anchor="end" font-size="11" font-family="monospace">221.855</text>
<line x1="90.000" y1="840.000" x2="1390.000" y2="840.000" stroke="#e2e8f0" stroke-dasharray="4,4"/>
<text x="80.000" y="844.000" text-anchor="end" font-size="11" font-family="monospace">277.318</text>
<line x1="90.000" y1="840.000" x2="90.000" y2="1085.000" stroke="#f1f5f9"/>
<text x="90.000" y="1105.000" text-anchor="middle" font-size="11" font-family="monospace">1</text>
<line x1="252.500" y1="840.000" x2="252.500" y2="1085.000" stroke="#f1f5f9"/>
<text x="252.500" y="1105.000" text-anchor="middle" font-size="11" font-family="monospace">4</text>
<line x1="523.333" y1="840.000" x2="523.333" y2="1085.000" stroke="#f1f5f9"/>
<text x="523.333" y="1105.000" text-anchor="middle" font-size="11" font-family="monospace">9</text>
<line x1="902.500" y1="840.000" x2="902.500" y2="1085.000" stroke="#f1f5f9"/>
<text x="902.500" y="1105.000" text-anchor="middle" font-size="11" font-family="monospace">16</text>
<line x1="1390.000" y1="840.000" x2="1390.000" y2="1085.000" stroke="#f1f5f9"/>
<text x="1390.000" y="1105.000" text-anchor="middle" font-size="11" font-family="monospace">25</text>
<text x="740.000" y="1130.000" text-anchor="middle" font-size="12" font-family="sans-serif">P (threads / processors)</text>
<text x="38.000" y="962.500" transform="rotate(-90 30.000 962.500)" text-anchor="middle" font-size="12" font-family="sans-serif">Cost</text>
<polyline fill="none" stroke="#1d4ed8" stroke-width="2.5" points="90,985.088 252.5,985.088 523.333,985.088 902.5,985.088 1390,985.088"/>
<circle cx="90.000" cy="985.088" r="4" fill="#1d4ed8"/>
<circle cx="252.500" cy="985.088" r="4" fill="#1d4ed8"/>
<circle cx="523.333" cy="985.088" r="4" fill="#1d4ed8"/>
<circle cx="902.500" cy="985.088" r="4" fill="#1d4ed8"/>
<circle cx="1390.000" cy="985.088" r="4" fill="#1d4ed8"/>
<line x1="1400.000" y1="850.000" x2="1450.000" y2="850.000" stroke="#1d4ed8" stroke-width="3"/>
<text x="1460.000" y="854.000" font-size="11" font-family="sans-serif">Implementation 1 (Serial)</text>
<polyline fill="none" stroke="#ea580c" stroke-width="2.5" points="90,984.96 252.5,978.795 523.333,964.43 902.5,956.692 1390,862.273"/>
<circle cx="90.000" cy="984.960" r="4" fill="#ea580c"/>
<circle cx="252.500" cy="978.795" r="4" fill="#ea580c"/>
<circle cx="523.333" cy="964.430" r="4" fill="#ea580c"/>
<circle cx="902.500" cy="956.692" r="4" fill="#ea580c"/>
<circle cx="1390.000" cy="862.273" r="4" fill="#ea580c"/>
<line x1="1400.000" y1="868.000" x2="1450.000" y2="868.000" stroke="#ea580c" stroke-width="3"/>
<text x="1460.000" y="872.000" font-size="11" font-family="sans-serif">Implementation 2 (MM-1D)</text>
<polyline fill="none" stroke="#059669" stroke-width="2.5" points="90,985.113 252.5,1010.95 523.333,977.905 902.5,1002.23 1390,925.343"/>
<circle cx="90.000" cy="985.113" r="4" fill="#059669"/>
<circle cx="252.500" cy="1010.949" r="4" fill="#059669"/>
<circle cx="523.333" cy="977.905" r="4" fill="#059669"/>
<circle cx="902.500" cy="1002.226" r="4" fill="#059669"/>
<circle cx="1390.000" cy="925.343" r="4" fill="#059669"/>
<line x1="1400.000" y1="886.000" x2="1450.000" y2="886.000" stroke="#059669" stroke-width="3"/>
<text x="1460.000" y="890.000" font-size="11" font-family="sans-serif">Implementation 3 (MM-2D)</text>
</g>
</svg>
